<svg aria-hidden="true" style="position: absolute; width: 0; height: 0; overflow: hidden;" version="1.1" xmlns="http://www.w3.org/2000/svg" xmlns:xlink="http://www.w3.org/1999/xlink">
<defs>
<symbol id="icon-untitled" viewBox="0 0 48 32">
<path d="M41.648 18.935c-0.261-1.955-0.429-3.7-0.506-5.235-0.033-1.56 0.026-2.91 0.178-4.050l-37.94 21.905-1.795-3.109 37.94-21.905c-1.092-0.488-2.305-1.137-3.639-1.945-1.291-0.834-2.704-1.827-4.238-2.981l2.278-1.315c4.813 2.024 9.215 3.036 13.206 3.035l0.769 1.332c-2.025 3.406-3.35 7.724-3.975 12.954l-2.278 1.315z"></path>
</symbol>
<symbol id="icon-facebook" viewBox="0 0 32 32">
<path d="M19.52 4.64c0.24 0 0.48 0 0.96 0v3.6c-0.24 0-0.72 0-1.2 0s-0.96 0-1.2 0.24c-0.24 0.24-0.24 0.48-0.24 1.040 0 0.48 0 0.8 0 1.28h2.64v3.040h-2.64v13.2h-4.080v-13.28h-2.16v-3.040h2.16v-1.040c0-1.76 0.24-3.040 0.72-3.6 0.72-1.040 2.16-1.52 4.32-1.52 0.24 0.080 0.48 0.080 0.72 0.080z"></path>
</symbol>
<symbol id="icon-instagram" viewBox="0 0 32 32">
<path d="M30.837 9.882c-0.018-1.253-0.251-2.497-0.695-3.669-0.778-2.002-2.362-3.585-4.367-4.36-1.159-0.435-2.385-0.669-3.625-0.695-1.596-0.071-2.101-0.091-6.151-0.091s-4.569 0-6.153 0.091c-1.239 0.026-2.465 0.26-3.624 0.695-2.005 0.775-3.591 2.358-4.367 4.36-0.436 1.157-0.672 2.381-0.695 3.618-0.071 1.595-0.093 2.1-0.093 6.143s0 4.56 0.093 6.143c0.025 1.239 0.259 2.46 0.695 3.621 0.778 2 2.362 3.583 4.369 4.358 1.154 0.45 2.38 0.705 3.624 0.745 1.597 0.071 2.103 0.093 6.153 0.093s4.569 0 6.153-0.093c1.239-0.025 2.465-0.258 3.626-0.694 2.005-0.777 3.589-2.359 4.367-4.36 0.436-1.159 0.67-2.381 0.695-3.621 0.071-1.593 0.093-2.098 0.093-6.143-0.003-4.043-0.003-4.557-0.096-6.141zM15.988 23.62c-4.236 0-7.667-3.426-7.667-7.655s3.431-7.655 7.667-7.655c4.233 0 7.667 3.426 7.667 7.655s-3.435 7.655-7.667 7.655zM23.961 9.812c-0.99 0-1.788-0.798-1.788-1.785s0.798-1.785 1.788-1.785c0.987 0 1.786 0.798 1.786 1.785s-0.799 1.785-1.786 1.785z"></path>
</symbol>
<symbol id="icon-logo" viewBox="0 0 35 32">
<path d="M15.392 11.53h-1.098v-1.113h1.098v1.113z"></path>
<path d="M14.294 11.53h-1.098v-1.113h1.098v1.113z"></path>
<path d="M8.805 11.53h-1.098v-1.113h1.098v1.113z"></path>
<path d="M7.706 11.53h-1.098v-1.113h1.098v1.113z"></path>
<path d="M6.609 11.53h-1.098v-1.113h1.098v1.113z"></path>
<path d="M28.566 10.417h-1.098v-1.113h1.098v1.113z"></path>
<path d="M27.468 10.417h-1.098v-1.113h1.098v1.113z"></path>
<path d="M19.783 10.417h-1.098v-1.113h1.098v1.113z"></path>
<path d="M18.685 10.417h-1.098v-1.113h1.098v1.113z"></path>
<path d="M16.489 10.417h-1.098v-1.113h1.098v1.113z"></path>
<path d="M15.392 10.417h-1.098v-1.113h1.098v1.113z"></path>
<path d="M7.706 10.417h-1.098v-1.113h1.098v1.113z"></path>
<path d="M6.609 10.417h-1.098v-1.113h1.098v1.113z"></path>
<path d="M28.566 9.304h-1.098v-1.113h1.098v1.113z"></path>
<path d="M18.685 9.304h-1.098v-1.113h1.098v1.113z"></path>
<path d="M16.489 9.304h-1.098v-1.113h1.098v1.113z"></path>
<path d="M6.609 9.304h-1.098v-1.113h1.098v1.113z"></path>
<path d="M34.055 8.191h-1.098v-1.113h1.098v1.113z"></path>
<path d="M1.12 8.191h-1.098v-1.113h1.098v1.113z"></path>
<path d="M34.055 7.078h-1.098v-1.113h1.098v1.113z"></path>
<path d="M32.957 7.078h-1.098v-1.113h1.098v1.113z"></path>
<path d="M23.077 7.078h-1.098v-1.113h1.098v1.113z"></path>
<path d="M21.978 7.078h-1.098v-1.113h1.098v1.113z"></path>
<path d="M20.881 7.078h-1.098v-1.113h1.098v1.113z"></path>
<path d="M14.294 7.078h-1.098v-1.113h1.098v1.113z"></path>
<path d="M13.196 7.078h-1.098v-1.113h1.098v1.113z"></path>
<path d="M12.098 7.078h-1.098v-1.113h1.098v1.113z"></path>
<path d="M2.217 7.078h-1.098v-1.113h1.098v1.113z"></path>
<path d="M1.12 7.078h-1.098v-1.113h1.098v1.113z"></path>
<path d="M34.055 5.965h-1.098v-1.113h1.098v1.113z"></path>
<path d="M32.957 5.965h-1.098v-1.113h1.098v1.113z"></path>
<path d="M31.86 5.965h-1.098v-1.113h1.098v1.113z"></path>
<path d="M24.174 5.965h-1.098v-1.113h1.098v1.113z"></path>
<path d="M23.077 5.965h-1.098v-1.113h1.098v1.113z"></path>
<path d="M21.978 5.965h-1.098v-1.113h1.098v1.113z"></path>
<path d="M18.685 5.965h-1.098v-1.113h1.098v1.113z"></path>
<path d="M16.489 5.965h-1.098v-1.113h1.098v1.113z"></path>
<path d="M13.196 5.965h-1.098v-1.113h1.098v1.113z"></path>
<path d="M12.098 5.965h-1.098v-1.113h1.098v1.113z"></path>
<path d="M11 5.965h-1.098v-1.113h1.098v1.113z"></path>
<path d="M3.315 5.965h-1.098v-1.113h1.098v1.113z"></path>
<path d="M2.217 5.965h-1.098v-1.113h1.098v1.113z"></path>
<path d="M1.12 5.965h-1.098v-1.113h1.098v1.113z"></path>
<path d="M32.957 4.852h-1.098v-1.113h1.098v1.113z"></path>
<path d="M31.86 4.852h-1.098v-1.113h1.098v1.113z"></path>
<path d="M30.761 4.852h-1.098v-1.113h1.098v1.113z"></path>
<path d="M25.272 4.852h-1.098v-1.113h1.098v1.113z"></path>
<path d="M24.174 4.852h-1.098v-1.113h1.098v1.113z"></path>
<path d="M23.077 4.852h-1.098v-1.113h1.098v1.113z"></path>
<path d="M19.783 4.852h-1.098v-1.113h1.098v1.113z"></path>
<path d="M18.685 4.852h-1.098v-1.113h1.098v1.113z"></path>
<path d="M16.489 4.852h-1.098v-1.113h1.098v1.113z"></path>
<path d="M15.392 4.852h-1.098v-1.113h1.098v1.113z"></path>
<path d="M12.098 4.852h-1.098v-1.113h1.098v1.113z"></path>
<path d="M11 4.852h-1.098v-1.113h1.098v1.113z"></path>
<path d="M9.903 4.852h-1.098v-1.113h1.098v1.113z"></path>
<path d="M4.413 4.852h-1.098v-1.113h1.098v1.113z"></path>
<path d="M3.315 4.852h-1.098v-1.113h1.098v1.113z"></path>
<path d="M2.217 4.852h-1.098v-1.113h1.098v1.113z"></path>
<path d="M31.86 3.739h-1.098v-1.113h1.098v1.113z"></path>
<path d="M30.761 3.739h-1.098v-1.113h1.098v1.113z"></path>
<path d="M29.664 3.739h-1.098v-1.113h1.098v1.113z"></path>
<path d="M20.881 3.739h-1.098v-1.113h1.098v1.113z"></path>
<path d="M19.783 3.739h-1.098v-1.113h1.098v1.113z"></path>
<path d="M18.685 3.739h-1.098v-1.113h1.098v1.113z"></path>
<path d="M16.489 3.739h-1.098v-1.113h1.098v1.113z"></path>
<path d="M15.392 3.739h-1.098v-1.113h1.098v1.113z"></path>
<path d="M14.294 3.739h-1.098v-1.113h1.098v1.113z"></path>
<path d="M5.511 3.739h-1.098v-1.113h1.098v1.113z"></path>
<path d="M4.413 3.739h-1.098v-1.113h1.098v1.113z"></path>
<path d="M3.315 3.739h-1.098v-1.113h1.098v1.113z"></path>
<path d="M35.153 2.626h-1.098v-1.113h1.098v1.113z"></path>
<path d="M30.761 2.626h-1.098v-1.113h1.098v1.113z"></path>
<path d="M29.664 2.626h-1.098v-1.113h1.098v1.113z"></path>
<path d="M28.566 2.626h-1.098v-1.113h1.098v1.113z"></path>
<path d="M20.881 2.626h-1.098v-1.113h1.098v1.113z"></path>
<path d="M19.783 2.626h-1.098v-1.113h1.098v1.113z"></path>
<path d="M15.392 2.626h-1.098v-1.113h1.098v1.113z"></path>
<path d="M14.294 2.626h-1.098v-1.113h1.098v1.113z"></path>
<path d="M6.609 2.626h-1.098v-1.113h1.098v1.113z"></path>
<path d="M5.511 2.626h-1.098v-1.113h1.098v1.113z"></path>
<path d="M4.413 2.626h-1.098v-1.113h1.098v1.113z"></path>
<path d="M35.153 1.513h-1.098v-1.113h1.098v1.113z"></path>
<path d="M34.055 1.513h-1.098v-1.113h1.098v1.113z"></path>
<path d="M29.664 1.513h-1.098v-1.113h1.098v1.113z"></path>
<path d="M28.566 1.513h-1.098v-1.113h1.098v1.113z"></path>
<path d="M27.468 1.513h-1.098v-1.113h1.098v1.113z"></path>
<path d="M20.881 1.513h-1.098v-1.113h1.098v1.113z"></path>
<path d="M14.294 1.513h-1.098v-1.113h1.098v1.113z"></path>
<path d="M7.706 1.513h-1.098v-1.113h1.098v1.113z"></path>
<path d="M6.609 1.513h-1.098v-1.113h1.098v1.113z"></path>
<path d="M5.511 1.513h-1.098v-1.113h1.098v1.113z"></path>
<path d="M1.12 1.513h-1.098v-1.113h1.098v1.113z"></path>
</symbol>
<symbol id="icon-Nav" viewBox="0 0 47 32">
<path fill="none" stroke="#ecd979" style="stroke: var(--color1, #ecd979)" stroke-linejoin="miter" stroke-linecap="round" stroke-miterlimit="4" stroke-width="3.2" d="M8.742 5.188h36.591"></path>
<path fill="none" stroke="#ecd979" style="stroke: var(--color1, #ecd979)" stroke-linejoin="miter" stroke-linecap="round" stroke-miterlimit="4" stroke-width="3.2" d="M8.742 24.582h36.591"></path>
<path fill="none" stroke="#ecd979" style="stroke: var(--color1, #ecd979)" stroke-linejoin="miter" stroke-linecap="round" stroke-miterlimit="4" stroke-width="3.2" d="M19.965 14.885h25.368"></path>
</symbol>
<symbol id="icon-x" viewBox="0 0 32 32">
<path stroke-linejoin="round" stroke-linecap="round" stroke-miterlimit="4" stroke-width="1.7778" d="M24 8l-16 16"></path>
<path stroke-linejoin="round" stroke-linecap="round" stroke-miterlimit="4" stroke-width="1.7778" d="M8 8l16 16"></path>
</symbol>
<symbol id="icon-youtube" viewBox="0 0 32 32">
<path d="M24.24 6c-1.36-0.080-4.16-0.16-8.4-0.16h-0.56c-4.080 0-6.8 0.080-8.16 0.24-1.84 0.16-3.12 0.64-3.84 1.28-0.64 0.56-1.12 1.6-1.28 2.96-0.080 0.88-0.16 2.72-0.16 5.52v0.4c0 2.64 0.080 4.48 0.24 5.36 0.24 1.28 0.64 2.24 1.44 2.8 0.8 0.64 2.16 1.040 4.080 1.2 1.36 0.080 4.16 0.16 8.4 0.16h0.56c4.080 0 6.8-0.080 8.16-0.24 1.84-0.16 3.12-0.64 3.84-1.28 0.64-0.56 1.12-1.6 1.28-2.96 0.080-0.88 0.16-2.72 0.16-5.52v-0.4c0-2.64-0.080-4.48-0.24-5.36-0.24-1.28-0.64-2.24-1.44-2.8-0.8-0.64-2.16-1.040-4.080-1.2zM21.12 15.84l-8.8 5.28v-10.56l8.8 5.28z"></path>
</symbol>

</defs>
</svg>
